Acrata-wght675.14.ufo
<glyph name="exclam" format="1">
  <advance width="503"/>
  <unicode hex="0021"/>
  <outline>
    <contour>
      <point x="181" y="196" type="line"/>
      <point x="240" y="196" type="line"/>
      <point x="278" y="750" type="line"/>
      <point x="143" y="750" type="line"/>
    </contour>
    <contour>
      <point x="211" y="-23" type="curve" smooth="yes"/>
      <point x="261" y="-23"/>
      <point x="274" y="-10"/>
      <point x="274" y="39" type="curve" smooth="yes"/>
      <point x="274" y="88"/>
      <point x="261" y="101"/>
      <point x="211" y="101" type="curve" smooth="yes"/>
      <point x="161" y="101"/>
      <point x="148" y="88"/>
      <point x="148" y="39" type="curve" smooth="yes"/>
      <point x="148" y="-10"/>
      <point x="161" y="-23"/>
    </contour>
  </outline>
</glyph>
<glyph name="parenright" format="1">
  <advance width="500"/>
  <unicode hex="0029"/>
  <outline>
    <contour>
      <point x="401" y="327" type="curve"/>
      <point x="401" y="557"/>
      <point x="325" y="674"/>
      <point x="143" y="755" type="curve"/>
      <point x="115" y="705" type="line"/>
      <point x="261" y="619"/>
      <point x="307" y="526"/>
      <point x="307" y="327" type="curve"/>
      <point x="307" y="128"/>
      <point x="261" y="35"/>
      <point x="115" y="-51" type="curve"/>
      <point x="143" y="-101" type="line"/>
      <point x="325" y="-20"/>
      <point x="401" y="97"/>
    </contour>
  </outline>
</glyph>
<glyph name="comma" format="1">
  <advance width="304"/>
  <unicode hex="002C"/>
  <outline>
    <contour>
      <point x="266" y="70" type="curve" smooth="yes"/>
      <point x="266" y="128"/>
      <point x="242" y="149"/>
      <point x="189" y="149" type="curve" smooth="yes"/>
      <point x="134" y="149"/>
      <point x="111" y="128"/>
      <point x="111" y="70" type="curve" smooth="yes"/>
      <point x="111" y="58"/>
      <point x="115" y="33"/>
      <point x="131" y="16" type="curve"/>
      <point x="158" y="26"/>
      <point x="165" y="35"/>
      <point x="169" y="37" type="curve"/>
      <point x="137" y="44" type="line"/>
      <point x="59" y="-48" type="line"/>
      <point x="101" y="-94" type="line"/>
      <point x="122" y="-63"/>
      <point x="266" y="-41"/>
    </contour>
  </outline>
</glyph>
<glyph name="hyphen" format="1">
  <advance width="343"/>
  <unicode hex="002D"/>
  <outline>
    <contour>
      <point x="38" y="219" type="line"/>
      <point x="308" y="219" type="line"/>
      <point x="308" y="324" type="line"/>
      <point x="38" y="324" type="line"/>
    </contour>
  </outline>
</glyph>
<glyph name="period" format="1">
  <advance width="181"/>
  <unicode hex="002E"/>
  <outline>
    <contour>
      <point x="55" y="-5" type="curve" smooth="yes"/>
      <point x="71" y="-5"/>
      <point x="150" y="-1"/>
      <point x="150" y="15" type="curve" smooth="yes"/>
      <point x="150" y="31"/>
      <point x="145" y="109"/>
      <point x="129" y="109" type="curve" smooth="yes"/>
      <point x="113" y="109"/>
      <point x="34" y="105"/>
      <point x="34" y="89" type="curve" smooth="yes"/>
      <point x="34" y="73"/>
      <point x="39" y="-5"/>
    </contour>
  </outline>
</glyph>
<glyph name="zero" format="1">
  <advance width="756"/>
  <unicode hex="0030"/>
  <outline>
    <contour>
      <point x="370" y="-18" type="curve" smooth="yes"/>
      <point x="173" y="-18"/>
      <point x="89" y="102"/>
      <point x="89" y="373" type="curve" smooth="yes"/>
      <point x="89" y="648"/>
      <point x="175" y="759"/>
      <point x="377" y="759" type="curve" smooth="yes"/>
      <point x="576" y="759"/>
      <point x="659" y="638"/>
      <point x="659" y="366" type="curve" smooth="yes"/>
      <point x="659" y="91"/>
      <point x="573" y="-18"/>
    </contour>
    <contour>
      <point x="378" y="454" type="curve" smooth="yes"/>
      <point x="348" y="454"/>
      <point x="348" y="431"/>
      <point x="346" y="400" type="curve" smooth="yes"/>
      <point x="344" y="301"/>
      <point x="346" y="286"/>
      <point x="370" y="286" type="curve" smooth="yes"/>
      <point x="400" y="286"/>
      <point x="400" y="308"/>
      <point x="402" y="339" type="curve" smooth="yes"/>
      <point x="405" y="439"/>
      <point x="402" y="454"/>
    </contour>
  </outline>
</glyph>
<glyph name="two" format="1">
  <advance width="555"/>
  <unicode hex="0032"/>
  <outline>
    <contour>
      <point x="246" y="368" type="line" smooth="yes"/>
      <point x="341" y="404"/>
      <point x="426" y="438"/>
      <point x="426" y="525" type="curve" smooth="yes"/>
      <point x="426" y="557" type="line" smooth="yes"/>
      <point x="426" y="638"/>
      <point x="387" y="679"/>
      <point x="263" y="679" type="curve"/>
      <point x="182" y="679"/>
      <point x="129" y="654"/>
      <point x="67" y="627" type="curve"/>
      <point x="126" y="695" type="line"/>
      <point x="112" y="497" type="line"/>
      <point x="56" y="497" type="line"/>
      <point x="42" y="705" type="line"/>
      <point x="98" y="732"/>
      <point x="159" y="757"/>
      <point x="270" y="757" type="curve"/>
      <point x="400" y="757"/>
      <point x="509" y="703"/>
      <point x="509" y="562" type="curve" smooth="yes"/>
      <point x="509" y="525" type="line" smooth="yes"/>
      <point x="509" y="378"/>
      <point x="396" y="328"/>
      <point x="288" y="285" type="curve" smooth="yes"/>
      <point x="283" y="283" type="line" smooth="yes"/>
      <point x="197" y="249"/>
      <point x="123" y="198"/>
      <point x="123" y="92" type="curve" smooth="yes"/>
      <point x="123" y="77" type="line"/>
      <point x="486" y="77" type="line"/>
      <point x="440" y="41" type="line"/>
      <point x="457" y="215" type="line"/>
      <point x="504" y="215" type="line"/>
      <point x="515" y="0" type="line"/>
      <point x="40" y="0" type="line"/>
      <point x="40" y="92" type="line" smooth="yes"/>
      <point x="40" y="259"/>
      <point x="137" y="327"/>
      <point x="238" y="365" type="curve" smooth="yes"/>
    </contour>
  </outline>
</glyph>
<glyph name="three" format="1">
  <advance width="655"/>
  <unicode hex="0033"/>
  <outline>
    <contour>
      <point x="245" y="20" type="curve"/>
      <point x="176" y="12"/>
      <point x="136" y="26"/>
      <point x="134" y="73" type="curve"/>
      <point x="180" y="73"/>
      <point x="202" y="207"/>
      <point x="202" y="236" type="curve"/>
      <point x="202" y="270"/>
      <point x="239" y="281"/>
      <point x="187" y="284" type="curve" smooth="yes"/>
      <point x="178" y="183" type="line"/>
      <point x="156" y="258" type="line"/>
      <point x="185" y="217"/>
      <point x="254" y="205"/>
      <point x="303" y="205" type="curve" smooth="yes"/>
      <point x="401" y="208"/>
      <point x="437" y="240"/>
      <point x="437" y="359" type="curve"/>
      <point x="437" y="412"/>
      <point x="412" y="448"/>
      <point x="339" y="453" type="curve"/>
      <point x="320" y="453"/>
      <point x="185" y="463"/>
      <point x="170" y="458" type="curve"/>
      <point x="182" y="528" type="line"/>
      <point x="291" y="483" type="line"/>
      <point x="338" y="489"/>
      <point x="311" y="542"/>
      <point x="304" y="560" type="curve"/>
      <point x="296" y="584"/>
      <point x="262" y="672"/>
      <point x="231" y="672" type="curve"/>
      <point x="218" y="675"/>
      <point x="206" y="680"/>
      <point x="209" y="632" type="curve"/>
      <point x="255" y="632"/>
      <point x="301" y="673"/>
      <point x="301" y="625" type="curve" smooth="yes"/>
      <point x="301" y="590"/>
      <point x="272" y="474"/>
      <point x="242" y="472" type="curve" smooth="yes"/>
      <point x="177" y="471" type="line"/>
      <point x="195" y="614" type="line"/>
      <point x="227" y="639"/>
      <point x="291" y="630"/>
      <point x="335" y="630" type="curve"/>
      <point x="451" y="630"/>
      <point x="464" y="569"/>
      <point x="477" y="512" type="curve"/>
      <point x="495" y="432"/>
      <point x="472" y="401"/>
      <point x="442" y="401" type="curve" smooth="yes"/>
      <point x="477" y="399"/>
      <point x="473" y="389"/>
      <point x="473" y="342" type="curve"/>
      <point x="473" y="287"/>
      <point x="483" y="301"/>
      <point x="421" y="301" type="curve"/>
      <point x="391" y="301"/>
      <point x="372" y="240"/>
      <point x="347" y="248" type="curve"/>
      <point x="308" y="334" type="line"/>
      <point x="349" y="334" type="line"/>
      <point x="379" y="334"/>
      <point x="438" y="258"/>
      <point x="438" y="190" type="curve"/>
      <point x="438" y="85"/>
      <point x="351" y="20"/>
    </contour>
  </outline>
</glyph>
<glyph name="four" format="1">
  <advance width="710"/>
  <unicode hex="0034"/>
  <outline>
    <contour>
      <point x="670" y="64" type="line"/>
      <point x="533" y="77" type="line"/>
      <point x="546" y="45" type="line"/>
      <point x="546" y="740" type="line"/>
      <point x="417" y="740" type="line"/>
      <point x="65" y="278" type="line"/>
      <point x="65" y="194" type="line"/>
      <point x="489" y="194" type="line"/>
      <point x="505" y="188" type="line"/>
      <point x="665" y="205" type="line"/>
      <point x="665" y="258" type="line"/>
      <point x="510" y="270" type="line"/>
      <point x="489" y="267" type="line"/>
      <point x="161" y="267" type="line"/>
      <point x="161" y="278" type="line"/>
      <point x="462" y="670" type="line"/>
      <point x="458" y="670" type="line"/>
      <point x="458" y="45" type="line"/>
      <point x="482" y="77" type="line"/>
      <point x="245" y="64" type="line"/>
      <point x="245" y="0" type="line"/>
      <point x="670" y="0" type="line"/>
    </contour>
    <contour>
      <point x="439" y="652" type="line"/>
      <point x="475" y="652" type="line"/>
      <point x="475" y="682" type="line"/>
      <point x="439" y="682" type="line"/>
    </contour>
  </outline>
</glyph>
<glyph name="five" format="1">
  <advance width="634"/>
  <unicode hex="0035"/>
  <outline>
    <contour>
      <point x="164" y="439" type="curve"/>
      <point x="182" y="410" type="line"/>
      <point x="182" y="682" type="line"/>
      <point x="142" y="659" type="line"/>
      <point x="491" y="659" type="line"/>
      <point x="474" y="695" type="line"/>
      <point x="489" y="520" type="line"/>
      <point x="538" y="520" type="line"/>
      <point x="549" y="740" type="line"/>
      <point x="93" y="740" type="line"/>
      <point x="93" y="372" type="line"/>
      <point x="214" y="370" type="line" smooth="yes"/>
      <point x="442" y="366"/>
      <point x="478" y="320"/>
      <point x="478" y="223" type="curve"/>
      <point x="478" y="96"/>
      <point x="418" y="70"/>
      <point x="289" y="70" type="curve"/>
      <point x="244" y="70"/>
      <point x="170" y="79"/>
      <point x="138" y="88" type="curve"/>
      <point x="131" y="231" type="line"/>
      <point x="83" y="231" type="line"/>
      <point x="65" y="17" type="line"/>
      <point x="138" y="0"/>
      <point x="219" y="-18"/>
      <point x="323" y="-18" type="curve"/>
      <point x="470" y="-18"/>
      <point x="569" y="39"/>
      <point x="569" y="230" type="curve"/>
      <point x="569" y="400"/>
      <point x="479" y="439"/>
    </contour>
  </outline>
</glyph>
<glyph name="seven" format="1">
  <advance width="603"/>
  <unicode hex="0037"/>
  <outline>
    <contour>
      <point x="40" y="740" type="line"/>
      <point x="58" y="483" type="line"/>
      <point x="118" y="483" type="line"/>
      <point x="133" y="718" type="line"/>
      <point x="95" y="656" type="line"/>
      <point x="526" y="656" type="line"/>
      <point x="528" y="729" type="line"/>
      <point x="171" y="0" type="line"/>
      <point x="272" y="0" type="line"/>
      <point x="583" y="641" type="line"/>
      <point x="583" y="740" type="line"/>
    </contour>
    <contour>
      <point x="483" y="608" type="line"/>
      <point x="540" y="707" type="line"/>
      <point x="483" y="703" type="line"/>
    </contour>
  </outline>
</glyph>
<glyph name="eight" format="1">
  <advance width="713"/>
  <unicode hex="0038"/>
  <outline>
    <contour>
      <point x="354" y="-18" type="curve" smooth="yes"/>
      <point x="133" y="-18"/>
      <point x="65" y="34"/>
      <point x="65" y="204" type="curve" smooth="yes"/>
      <point x="64" y="334"/>
      <point x="105" y="364"/>
      <point x="216" y="374" type="curve" smooth="yes"/>
      <point x="281" y="380" type="line"/>
      <point x="216" y="362" type="line"/>
      <point x="216" y="424" type="line"/>
      <point x="281" y="389" type="line"/>
      <point x="217" y="394" type="line" smooth="yes"/>
      <point x="114" y="402"/>
      <point x="92" y="440"/>
      <point x="91" y="570" type="curve" smooth="yes"/>
      <point x="91" y="711"/>
      <point x="146" y="754"/>
      <point x="358" y="756" type="curve" smooth="yes"/>
      <point x="568" y="756"/>
      <point x="622" y="713"/>
      <point x="622" y="570" type="curve" smooth="yes"/>
      <point x="621" y="440"/>
      <point x="599" y="402"/>
      <point x="496" y="394" type="curve" smooth="yes"/>
      <point x="432" y="389" type="line"/>
      <point x="497" y="424" type="line"/>
      <point x="497" y="362" type="line"/>
      <point x="432" y="380" type="line"/>
      <point x="497" y="374" type="line" smooth="yes"/>
      <point x="614" y="363"/>
      <point x="649" y="334"/>
      <point x="648" y="204" type="curve" smooth="yes"/>
      <point x="648" y="34"/>
      <point x="579" y="-18"/>
    </contour>
    <contour>
      <point x="356" y="349" type="curve" smooth="yes"/>
      <point x="197" y="349"/>
      <point x="159" y="305"/>
      <point x="160" y="211" type="curve" smooth="yes"/>
      <point x="160" y="100"/>
      <point x="205" y="66"/>
      <point x="354" y="66" type="curve" smooth="yes"/>
      <point x="506" y="66"/>
      <point x="553" y="100"/>
      <point x="553" y="211" type="curve" smooth="yes"/>
      <point x="554" y="305"/>
      <point x="514" y="349"/>
    </contour>
    <contour>
      <point x="356" y="412" type="curve" smooth="yes"/>
      <point x="497" y="412"/>
      <point x="521" y="456"/>
      <point x="522" y="544" type="curve" smooth="yes"/>
      <point x="522" y="645"/>
      <point x="491" y="676"/>
      <point x="358" y="676" type="curve" smooth="yes"/>
      <point x="222" y="676"/>
      <point x="191" y="645"/>
      <point x="191" y="544" type="curve" smooth="yes"/>
      <point x="192" y="456"/>
      <point x="216" y="412"/>
    </contour>
  </outline>
</glyph>
<glyph name="nine" format="1">
  <advance width="676"/>
  <unicode hex="0039"/>
  <outline>
    <contour>
      <point x="557" y="385" type="line"/>
      <point x="537" y="353" type="line"/>
      <point x="460" y="353" type="line"/>
      <point x="495" y="382" type="line"/>
      <point x="485" y="307"/>
      <point x="449" y="286"/>
      <point x="295" y="286" type="curve"/>
      <point x="137" y="286"/>
      <point x="65" y="334"/>
      <point x="65" y="500" type="curve" smooth="yes"/>
      <point x="65" y="670"/>
      <point x="132" y="758"/>
      <point x="331" y="758" type="curve" smooth="yes"/>
      <point x="551" y="758"/>
      <point x="611" y="685"/>
      <point x="611" y="371" type="curve" smooth="yes"/>
      <point x="611" y="41"/>
      <point x="523" y="-18"/>
      <point x="331" y="-18" type="curve" smooth="yes"/>
      <point x="212" y="-18"/>
      <point x="133" y="4"/>
      <point x="79" y="27" type="curve"/>
      <point x="97" y="218" type="line"/>
      <point x="151" y="218" type="line"/>
      <point x="167" y="35" type="line"/>
      <point x="120" y="106" type="line"/>
      <point x="158" y="84"/>
      <point x="234" y="68"/>
      <point x="312" y="68" type="curve"/>
      <point x="478" y="68"/>
      <point x="517" y="129"/>
      <point x="517" y="370" type="curve" smooth="yes"/>
      <point x="517" y="625"/>
      <point x="446" y="672"/>
      <point x="331" y="672" type="curve" smooth="yes"/>
      <point x="199" y="672"/>
      <point x="157" y="603"/>
      <point x="157" y="499" type="curve" smooth="yes"/>
      <point x="157" y="399"/>
      <point x="189" y="369"/>
      <point x="331" y="369" type="curve" smooth="yes"/>
      <point x="432" y="369"/>
      <point x="490" y="390"/>
      <point x="541" y="425" type="curve"/>
    </contour>
  </outline>
</glyph>
<glyph name="question" format="1">
  <advance width="503"/>
  <unicode hex="003F"/>
  <outline>
    <contour>
      <point x="182" y="-23" type="curve" smooth="yes"/>
      <point x="232" y="-23"/>
      <point x="245" y="-10"/>
      <point x="245" y="39" type="curve" smooth="yes"/>
      <point x="245" y="88"/>
      <point x="232" y="101"/>
      <point x="182" y="101" type="curve" smooth="yes"/>
      <point x="132" y="101"/>
      <point x="119" y="88"/>
      <point x="119" y="39" type="curve" smooth="yes"/>
      <point x="119" y="-10"/>
      <point x="132" y="-23"/>
    </contour>
    <contour>
      <point x="216" y="285" type="move"/>
      <point x="291" y="290" type="line" smooth="yes"/>
      <point x="427" y="299"/>
      <point x="508" y="369"/>
      <point x="508" y="549" type="curve" smooth="yes"/>
      <point x="508" y="702"/>
      <point x="408" y="757"/>
      <point x="267" y="757" type="curve" smooth="yes"/>
      <point x="156" y="757"/>
      <point x="95" y="742"/>
      <point x="39" y="715" type="curve"/>
      <point x="49" y="547" type="line"/>
      <point x="115" y="547" type="line"/>
      <point x="134" y="687" type="line"/>
      <point x="99" y="651" type="line"/>
      <point x="171" y="673"/>
      <point x="215" y="676"/>
      <point x="256" y="676" type="curve" smooth="yes"/>
      <point x="360" y="676"/>
      <point x="405" y="638"/>
      <point x="405" y="525" type="curve"/>
      <point x="405" y="421"/>
      <point x="390" y="360"/>
      <point x="220" y="348" type="curve"/>
      <point x="161" y="348" type="line" smooth="yes"/>
      <point x="148" y="348"/>
      <point x="142" y="342"/>
      <point x="143" y="329" type="curve" smooth="yes"/>
      <point x="154" y="161" type="line"/>
      <point x="215" y="161" type="line"/>
      <point x="232" y="321" type="line"/>
      <point x="201" y="294" type="line"/>
    </contour>
  </outline>
</glyph>
<glyph name="C" format="1">
  <advance width="693"/>
  <unicode hex="0043"/>
  <outline>
    <contour>
      <point x="567" y="58" type="curve" smooth="yes"/>
      <point x="455" y="11"/>
      <point x="360" y="19"/>
      <point x="277" y="108" type="curve" smooth="yes"/>
      <point x="127" y="197"/>
      <point x="94" y="318"/>
      <point x="160" y="503" type="curve" smooth="yes"/>
      <point x="200" y="686"/>
      <point x="296" y="748"/>
      <point x="471" y="736" type="curve"/>
      <point x="540" y="736"/>
      <point x="596" y="646"/>
      <point x="632" y="623" type="curve"/>
      <point x="591" y="448" type="line"/>
      <point x="532" y="524" type="line"/>
      <point x="524" y="641" type="line"/>
      <point x="510" y="654"/>
      <point x="547" y="610"/>
      <point x="515" y="610" type="curve" smooth="yes"/>
      <point x="430" y="632"/>
      <point x="368" y="619"/>
      <point x="313" y="551" type="curve" smooth="yes"/>
      <point x="225" y="481"/>
      <point x="216" y="415"/>
      <point x="261" y="310" type="curve" smooth="yes"/>
      <point x="289" y="149"/>
      <point x="333" y="105"/>
      <point x="443" y="121" type="curve"/>
      <point x="510" y="120"/>
      <point x="566" y="113"/>
      <point x="599" y="147" type="curve"/>
      <point x="581" y="129"/>
      <point x="606" y="58"/>
    </contour>
  </outline>
</glyph>
<glyph name="D" format="1">
  <advance width="748"/>
  <unicode hex="0044"/>
  <outline>
    <contour>
      <point x="227" y="-1" type="line"/>
      <point x="412" y="-1"/>
      <point x="486" y="91"/>
      <point x="486" y="271" type="curve"/>
      <point x="486" y="452"/>
      <point x="453" y="530"/>
      <point x="272" y="530" type="curve"/>
      <point x="74" y="521" type="line"/>
      <point x="74" y="649" type="line"/>
      <point x="176" y="636" type="line"/>
      <point x="97" y="669" type="line"/>
      <point x="97" y="300" type="line"/>
      <point x="217" y="319" type="line"/>
      <point x="298" y="319"/>
      <point x="259" y="265"/>
      <point x="259" y="180" type="curve" smooth="yes"/>
      <point x="259" y="95"/>
      <point x="227" y="0"/>
      <point x="150" y="0" type="curve" smooth="yes"/>
    </contour>
    <contour>
      <point x="276" y="444" type="line"/>
      <point x="408" y="446"/>
      <point x="435" y="411"/>
      <point x="435" y="265" type="curve"/>
      <point x="435" y="141"/>
      <point x="456" y="103"/>
      <point x="324" y="102" type="curve" smooth="yes"/>
      <point x="378" y="102"/>
      <point x="344" y="128"/>
      <point x="344" y="194" type="curve" smooth="yes"/>
      <point x="344" y="260"/>
      <point x="343" y="267"/>
      <point x="282" y="268" type="curve"/>
      <point x="234" y="668" type="line"/>
      <point x="227" y="654" type="line"/>
    </contour>
  </outline>
</glyph>
<glyph name="E" format="1">
  <advance width="663"/>
  <unicode hex="0045"/>
  <outline>
    <contour>
      <point x="188" y="317" type="line"/>
      <point x="188" y="426" type="line"/>
      <point x="470" y="408" type="line"/>
      <point x="470" y="329" type="line"/>
    </contour>
    <contour>
      <point x="390" y="78" type="line"/>
      <point x="538" y="185" type="line"/>
      <point x="578" y="174" type="line"/>
      <point x="588" y="71" type="line"/>
      <point x="228" y="71" type="line"/>
      <point x="228" y="59" type="line"/>
      <point x="116" y="78" type="line"/>
      <point x="97" y="73" type="line"/>
      <point x="135" y="476" type="line"/>
      <point x="144" y="446" type="line"/>
      <point x="74" y="649" type="line"/>
      <point x="83" y="710" type="line"/>
      <point x="418" y="719" type="line"/>
      <point x="413" y="589" type="line"/>
      <point x="542" y="589" type="line"/>
      <point x="521" y="622" type="line"/>
      <point x="521" y="600" type="line"/>
      <point x="316" y="653" type="line"/>
      <point x="350" y="668" type="line"/>
      <point x="230" y="268" type="line"/>
      <point x="221" y="298" type="line"/>
      <point x="423" y="90" type="line"/>
    </contour>
  </outline>
</glyph>
<glyph name="F" format="1">
  <advance width="632"/>
  <unicode hex="0046"/>
  <outline>
    <contour>
      <point x="188" y="307" type="line"/>
      <point x="188" y="416" type="line"/>
      <point x="472" y="398" type="line"/>
      <point x="472" y="319" type="line"/>
    </contour>
    <contour>
      <point x="334" y="12" type="line"/>
      <point x="94" y="31" type="line"/>
      <point x="160" y="80" type="line"/>
      <point x="230" y="78" type="line"/>
      <point x="99" y="53" type="line"/>
      <point x="99" y="466" type="line"/>
      <point x="155" y="455" type="line"/>
      <point x="74" y="440" type="line"/>
      <point x="74" y="724" type="line"/>
      <point x="462" y="710" type="line"/>
      <point x="419" y="561" type="line"/>
      <point x="369" y="582" type="line"/>
      <point x="528" y="691" type="line"/>
      <point x="550" y="600" type="line"/>
      <point x="320" y="600" type="line"/>
      <point x="337" y="678" type="line"/>
      <point x="350" y="260" type="line"/>
      <point x="210" y="292" type="line"/>
      <point x="334" y="286" type="line"/>
    </contour>
  </outline>
</glyph>
<glyph name="G" format="1">
  <advance width="737"/>
  <unicode hex="0047"/>
  <outline>
    <contour>
      <point x="564" y="113" type="curve"/>
      <point x="554" y="250" type="line"/>
      <point x="574" y="290" type="line"/>
      <point x="450" y="278" type="line"/>
      <point x="378" y="341" type="line"/>
      <point x="577" y="368" type="line"/>
      <point x="670" y="216" type="line"/>
      <point x="643" y="148"/>
      <point x="575" y="28"/>
      <point x="470" y="28" type="curve"/>
      <point x="297" y="-6"/>
      <point x="207" y="66"/>
      <point x="162" y="251" type="curve" smooth="yes"/>
      <point x="90" y="434"/>
      <point x="130" y="544"/>
      <point x="292" y="633" type="curve" smooth="yes"/>
      <point x="360" y="721"/>
      <point x="452" y="744"/>
      <point x="563" y="722" type="curve" smooth="yes"/>
      <point x="601" y="722"/>
      <point x="608" y="576"/>
      <point x="620" y="563" type="curve"/>
      <point x="558" y="500" type="line"/>
      <point x="510" y="603" type="line"/>
      <point x="565" y="615" type="line"/>
      <point x="527" y="637"/>
      <point x="507" y="628"/>
      <point x="452" y="628" type="curve"/>
      <point x="351" y="640"/>
      <point x="298" y="611"/>
      <point x="265" y="507" type="curve" smooth="yes"/>
      <point x="209" y="341"/>
      <point x="215" y="256"/>
      <point x="310" y="188" type="curve" smooth="yes"/>
      <point x="366" y="118"/>
      <point x="425" y="108"/>
      <point x="504" y="133" type="curve"/>
      <point x="538" y="133"/>
      <point x="544" y="87"/>
    </contour>
  </outline>
</glyph>
<glyph name="H" format="1">
  <advance width="815"/>
  <unicode hex="0048"/>
  <outline>
    <contour>
      <point x="203" y="320" type="line"/>
      <point x="203" y="414" type="line"/>
      <point x="608" y="414" type="line"/>
      <point x="608" y="320" type="line"/>
    </contour>
    <contour>
      <point x="241" y="682" type="line"/>
      <point x="241" y="73" type="line"/>
      <point x="202" y="104" type="line"/>
      <point x="324" y="95" type="line"/>
      <point x="324" y="0" type="line"/>
      <point x="48" y="0" type="line"/>
      <point x="48" y="80" type="line"/>
      <point x="157" y="109" type="line"/>
      <point x="123" y="81" type="line"/>
      <point x="123" y="674" type="line"/>
      <point x="175" y="636" type="line"/>
      <point x="48" y="645" type="line"/>
      <point x="48" y="740" type="line"/>
      <point x="324" y="740" type="line"/>
      <point x="324" y="660" type="line"/>
      <point x="217" y="631" type="line"/>
    </contour>
    <contour>
      <point x="691" y="677" type="line"/>
      <point x="691" y="69" type="line"/>
      <point x="637" y="105" type="line"/>
      <point x="767" y="95" type="line"/>
      <point x="767" y="0" type="line"/>
      <point x="491" y="0" type="line"/>
      <point x="491" y="80" type="line"/>
      <point x="595" y="109" type="line"/>
      <point x="573" y="81" type="line"/>
      <point x="573" y="670" type="line"/>
      <point x="614" y="636" type="line"/>
      <point x="491" y="645" type="line"/>
      <point x="491" y="740" type="line"/>
      <point x="767" y="740" type="line"/>
      <point x="767" y="660" type="line"/>
      <point x="657" y="631" type="line"/>
    </contour>
  </outline>
</glyph>
<glyph name="I" format="1">
  <advance width="403"/>
  <unicode hex="0049"/>
  <outline>
    <contour>
      <point x="260" y="265" type="line"/>
      <point x="223" y="91" type="line"/>
      <point x="320" y="105" type="line"/>
      <point x="363" y="21" type="line"/>
      <point x="134" y="0" type="line"/>
      <point x="40" y="59" type="line"/>
      <point x="125" y="100" type="line"/>
      <point x="153" y="78" type="line"/>
      <point x="142" y="464" type="line"/>
      <point x="179" y="651" type="line"/>
      <point x="83" y="635" type="line"/>
      <point x="40" y="719" type="line"/>
      <point x="269" y="740" type="line"/>
      <point x="363" y="681" type="line"/>
      <point x="278" y="640" type="line"/>
      <point x="249" y="662" type="line"/>
    </contour>
  </outline>
</glyph>
<glyph name="L" format="1">
  <advance width="643"/>
  <unicode hex="004C"/>
  <outline>
    <contour>
      <point x="339" y="76" type="line"/>
      <point x="375" y="76" type="line"/>
      <point x="331" y="71" type="line"/>
      <point x="409" y="249" type="line"/>
      <point x="452" y="240" type="line"/>
      <point x="452" y="227" type="line"/>
      <point x="83" y="211" type="line"/>
      <point x="44" y="279" type="line"/>
      <point x="116" y="319" type="line"/>
      <point x="207" y="300" type="line"/>
      <point x="207" y="669" type="line"/>
      <point x="185" y="635" type="line"/>
      <point x="103" y="652" type="line"/>
      <point x="103" y="518" type="line"/>
      <point x="335" y="527" type="line"/>
      <point x="447" y="465" type="line"/>
      <point x="316" y="436" type="line"/>
      <point x="339" y="544" type="line"/>
      <point x="360" y="144" type="line"/>
    </contour>
  </outline>
</glyph>
<glyph name="O" format="1">
  <advance width="758"/>
  <unicode hex="004F"/>
  <outline>
    <contour>
      <point x="376" y="-18" type="curve" smooth="yes"/>
      <point x="152" y="-18"/>
      <point x="54" y="102"/>
      <point x="54" y="373" type="curve" smooth="yes"/>
      <point x="54" y="648"/>
      <point x="155" y="759"/>
      <point x="382" y="759" type="curve" smooth="yes"/>
      <point x="606" y="759"/>
      <point x="705" y="638"/>
      <point x="705" y="366" type="curve" smooth="yes"/>
      <point x="705" y="91"/>
      <point x="604" y="-18"/>
    </contour>
    <contour>
      <point x="383" y="454" type="curve" smooth="yes"/>
      <point x="342" y="454"/>
      <point x="332" y="429"/>
      <point x="330" y="400" type="curve" smooth="yes"/>
      <point x="327" y="304"/>
      <point x="339" y="285"/>
      <point x="376" y="285" type="curve" smooth="yes"/>
      <point x="417" y="285"/>
      <point x="426" y="311"/>
      <point x="428" y="339" type="curve" smooth="yes"/>
      <point x="431" y="436"/>
      <point x="419" y="454"/>
    </contour>
  </outline>
</glyph>
<glyph name="T" format="1">
  <advance width="742"/>
  <unicode hex="0054"/>
  <outline>
    <contour>
      <point x="638" y="639" type="line"/>
      <point x="600" y="669" type="line"/>
      <point x="616" y="448" type="line"/>
      <point x="700" y="448" type="line"/>
      <point x="713" y="740" type="line"/>
      <point x="28" y="740" type="line"/>
      <point x="42" y="448" type="line"/>
      <point x="125" y="448" type="line"/>
      <point x="142" y="669" type="line"/>
      <point x="104" y="639" type="line"/>
    </contour>
    <contour>
      <point x="340" y="678" type="line"/>
      <point x="311" y="277" type="line"/>
      <point x="332" y="99" type="line"/>
      <point x="234" y="88" type="line"/>
      <point x="178" y="21" type="line"/>
      <point x="436" y="1" type="line"/>
      <point x="564" y="57" type="line"/>
      <point x="460" y="101" type="line"/>
      <point x="423" y="82" type="line"/>
      <point x="430" y="472" type="line"/>
    </contour>
  </outline>
</glyph>
<glyph name="W" format="1">
  <advance width="1069"/>
  <unicode hex="0057"/>
  <outline>
    <contour>
      <point x="569" y="682" type="line"/>
      <point x="510" y="676" type="line"/>
      <point x="683" y="0" type="line"/>
      <point x="840" y="0" type="line"/>
      <point x="996" y="683" type="line"/>
      <point x="957" y="647" type="line"/>
      <point x="1065" y="676" type="line"/>
      <point x="1065" y="740" type="line"/>
      <point x="791" y="740" type="line"/>
      <point x="791" y="676" type="line"/>
      <point x="925" y="648" type="line"/>
      <point x="908" y="682" type="line"/>
      <point x="770" y="56" type="line"/>
      <point x="808" y="88" type="line"/>
      <point x="728" y="88" type="line"/>
      <point x="765" y="56" type="line"/>
      <point x="595" y="691" type="line"/>
      <point x="492" y="691" type="line"/>
      <point x="324" y="56" type="line"/>
      <point x="367" y="88" type="line"/>
      <point x="283" y="88" type="line"/>
      <point x="316" y="56" type="line"/>
      <point x="187" y="688" type="line"/>
      <point x="173" y="654" type="line"/>
      <point x="279" y="676" type="line"/>
      <point x="279" y="740" type="line"/>
      <point x="5" y="740" type="line"/>
      <point x="5" y="676" type="line"/>
      <point x="128" y="642" type="line"/>
      <point x="89" y="678" type="line"/>
      <point x="238" y="0" type="line"/>
      <point x="387" y="0" type="line"/>
    </contour>
    <contour>
      <point x="499" y="556" type="line"/>
      <point x="590" y="556" type="line"/>
      <point x="587" y="657" type="line"/>
      <point x="496" y="657" type="line"/>
    </contour>
  </outline>
</glyph>
<glyph name="X" format="1">
  <advance width="740"/>
  <unicode hex="0058"/>
  <outline>
    <contour>
      <point x="53" y="49" type="line"/>
      <point x="122" y="94" type="line"/>
      <point x="-8" y="64" type="line"/>
      <point x="-8" y="4" type="line"/>
      <point x="319" y="4" type="line"/>
      <point x="319" y="64" type="line"/>
      <point x="170" y="87" type="line"/>
      <point x="160" y="48" type="line"/>
      <point x="679" y="708" type="line"/>
      <point x="580" y="651" type="line"/>
      <point x="725" y="688" type="line"/>
      <point x="725" y="740" type="line"/>
      <point x="398" y="740" type="line"/>
      <point x="398" y="688" type="line"/>
      <point x="565" y="663" type="line"/>
      <point x="563" y="699" type="line"/>
    </contour>
    <contour>
      <point x="659" y="50" type="line"/>
      <point x="143" y="726" type="line"/>
      <point x="152" y="650" type="line"/>
      <point x="323" y="688" type="line"/>
      <point x="323" y="740" type="line"/>
      <point x="-21" y="740" type="line"/>
      <point x="-21" y="688" type="line"/>
      <point x="124" y="644" type="line"/>
      <point x="54" y="702" type="line"/>
      <point x="562" y="30" type="line"/>
      <point x="561" y="94" type="line"/>
      <point x="421" y="64" type="line"/>
      <point x="421" y="4" type="line"/>
      <point x="765" y="4" type="line"/>
      <point x="765" y="64" type="line"/>
      <point x="619" y="90" type="line"/>
    </contour>
  </outline>
</glyph>
<glyph name="Y" format="1">
  <advance width="712"/>
  <unicode hex="0059"/>
  <outline>
    <contour>
      <point x="412" y="294" type="line"/>
      <point x="324" y="294" type="line"/>
      <point x="324" y="56" type="line"/>
      <point x="345" y="95" type="line"/>
      <point x="177" y="63" type="line"/>
      <point x="177" y="0" type="line"/>
      <point x="562" y="0" type="line"/>
      <point x="562" y="63" type="line"/>
      <point x="389" y="96" type="line"/>
      <point x="412" y="57" type="line"/>
    </contour>
    <contour>
      <point x="759" y="676" type="line"/>
      <point x="759" y="740" type="line"/>
      <point x="485" y="740" type="line"/>
      <point x="485" y="676" type="line"/>
      <point x="619" y="648" type="line"/>
      <point x="600" y="682" type="line"/>
      <point x="359" y="302" type="line"/>
      <point x="389" y="302" type="line"/>
      <point x="168" y="688" type="line"/>
      <point x="148" y="654" type="line"/>
      <point x="254" y="676" type="line"/>
      <point x="254" y="740" type="line"/>
      <point x="-20" y="740" type="line"/>
      <point x="-20" y="676" type="line"/>
      <point x="103" y="642" type="line"/>
      <point x="60" y="678" type="line"/>
      <point x="325" y="240" type="line"/>
      <point x="410" y="240" type="line"/>
      <point x="694" y="683" type="line"/>
      <point x="651" y="647" type="line"/>
    </contour>
    <contour>
      <point x="340" y="307" type="line"/>
      <point x="403" y="307" type="line"/>
      <point x="403" y="339" type="line"/>
      <point x="340" y="339" type="line"/>
    </contour>
  </outline>
</glyph>
<glyph name="Z" format="1">
  <advance width="709"/>
  <unicode hex="005A"/>
  <outline>
    <contour>
      <point x="53" y="740" type="line"/>
      <point x="61" y="495" type="line"/>
      <point x="137" y="495" type="line"/>
      <point x="157" y="674" type="line"/>
      <point x="130" y="658" type="line"/>
      <point x="550" y="658" type="line"/>
      <point x="532" y="680" type="line"/>
      <point x="56" y="100" type="line"/>
      <point x="56" y="0" type="line"/>
      <point x="656" y="0" type="line"/>
      <point x="651" y="263" type="line"/>
      <point x="569" y="263" type="line"/>
      <point x="551" y="40" type="line"/>
      <point x="611" y="82" type="line"/>
      <point x="139" y="82" type="line"/>
      <point x="144" y="48" type="line"/>
      <point x="619" y="636" type="line"/>
      <point x="619" y="740" type="line"/>
    </contour>
    <contour>
      <point x="119" y="24" type="line"/>
      <point x="181" y="24" type="line"/>
      <point x="181" y="112" type="line"/>
      <point x="119" y="112" type="line"/>
    </contour>
    <contour>
      <point x="503" y="634" type="line"/>
      <point x="576" y="634" type="line"/>
      <point x="576" y="707" type="line"/>
      <point x="503" y="707" type="line"/>
    </contour>
  </outline>
</glyph>
<glyph name="bracketright" format="1">
  <advance width="500"/>
  <unicode hex="005D"/>
  <outline>
    <contour>
      <point x="401" y="765" type="line"/>
      <point x="137" y="755" type="line"/>
      <point x="137" y="688" type="line"/>
      <point x="350" y="680" type="line"/>
      <point x="320" y="711" type="line"/>
      <point x="320" y="-38" type="line"/>
      <point x="350" y="-7" type="line"/>
      <point x="137" y="-15" type="line"/>
      <point x="137" y="-82" type="line"/>
      <point x="401" y="-92" type="line"/>
    </contour>
  </outline>
</glyph>
<glyph name="a" format="1">
  <advance width="582"/>
  <unicode hex="0061"/>
  <outline>
    <contour>
      <point x="28" y="154" type="curve" smooth="yes"/>
      <point x="28" y="38"/>
      <point x="83" y="-17"/>
      <point x="198" y="-17" type="curve" smooth="yes"/>
      <point x="292" y="-17"/>
      <point x="329" y="4"/>
      <point x="340" y="99" type="curve"/>
      <point x="308" y="67" type="line"/>
      <point x="410" y="68" type="line"/>
      <point x="395" y="154" type="line"/>
      <point x="372" y="121"/>
      <point x="315" y="99"/>
      <point x="252" y="99" type="curve" smooth="yes"/>
      <point x="191" y="99"/>
      <point x="167" y="117"/>
      <point x="167" y="161" type="curve" smooth="yes"/>
      <point x="167" y="214"/>
      <point x="188" y="232"/>
      <point x="248" y="232" type="curve" smooth="yes"/>
      <point x="303" y="232"/>
      <point x="344" y="225"/>
      <point x="391" y="194" type="curve"/>
      <point x="378" y="239" type="line"/>
      <point x="349" y="326"/>
      <point x="282" y="329"/>
      <point x="215" y="329" type="curve" smooth="yes"/>
      <point x="86" y="329"/>
      <point x="28" y="277"/>
    </contour>
    <contour>
      <point x="369" y="0" type="line"/>
      <point x="565" y="0" type="line"/>
      <point x="565" y="123" type="line"/>
      <point x="475" y="162" type="line"/>
      <point x="507" y="69" type="line"/>
      <point x="507" y="330" type="line" smooth="yes"/>
      <point x="507" y="492"/>
      <point x="446" y="559"/>
      <point x="287" y="559" type="curve" smooth="yes"/>
      <point x="197" y="559"/>
      <point x="130" y="543"/>
      <point x="58" y="508" type="curve"/>
      <point x="87" y="391" type="line"/>
      <point x="139" y="410"/>
      <point x="190" y="417"/>
      <point x="244" y="417" type="curve" smooth="yes"/>
      <point x="335" y="417"/>
      <point x="369" y="395"/>
      <point x="369" y="313" type="curve"/>
    </contour>
  </outline>
</glyph>
<glyph name="b" format="1">
  <advance width="623"/>
  <unicode hex="0062"/>
  <outline>
    <contour>
      <point x="394" y="-16" type="curve" smooth="yes"/>
      <point x="300" y="-16"/>
      <point x="259" y="23"/>
      <point x="245" y="132" type="curve"/>
      <point x="315" y="90" type="line"/>
      <point x="196" y="90" type="line"/>
      <point x="196" y="204" type="line"/>
      <point x="234" y="161"/>
      <point x="278" y="136"/>
      <point x="346" y="136" type="curve" smooth="yes"/>
      <point x="424" y="136"/>
      <point x="459" y="162"/>
      <point x="459" y="273" type="curve" smooth="yes"/>
      <point x="459" y="373"/>
      <point x="421" y="403"/>
      <point x="347" y="403" type="curve" smooth="yes"/>
      <point x="274" y="403"/>
      <point x="226" y="382"/>
      <point x="188" y="319" type="curve"/>
      <point x="203" y="446" type="line"/>
      <point x="311" y="446" type="line"/>
      <point x="249" y="405" type="line"/>
      <point x="262" y="515"/>
      <point x="312" y="550"/>
      <point x="410" y="550" type="curve" smooth="yes"/>
      <point x="551" y="550"/>
      <point x="594" y="457"/>
      <point x="594" y="269" type="curve" smooth="yes"/>
      <point x="594" y="62"/>
      <point x="535" y="-16"/>
    </contour>
    <contour>
      <point x="40" y="0" type="line"/>
      <point x="40" y="134" type="line"/>
      <point x="106" y="169" type="line"/>
      <point x="89" y="143" type="line"/>
      <point x="89" y="630" type="line"/>
      <point x="123" y="574" type="line"/>
      <point x="18" y="618" type="line"/>
      <point x="18" y="753" type="line"/>
      <point x="221" y="753" type="line"/>
      <point x="221" y="95" type="line"/>
      <point x="196" y="0" type="line"/>
    </contour>
  </outline>
</glyph>
<glyph name="c" format="1">
  <advance width="556"/>
  <unicode hex="0063"/>
  <outline>
    <contour>
      <point x="521" y="80" type="curve"/>
      <point x="467" y="174" type="line"/>
      <point x="417" y="145"/>
      <point x="388" y="135"/>
      <point x="304" y="135" type="curve" smooth="yes"/>
      <point x="211" y="135"/>
      <point x="174" y="176"/>
      <point x="174" y="270" type="curve" smooth="yes"/>
      <point x="174" y="369"/>
      <point x="209" y="407"/>
      <point x="288" y="407" type="curve" smooth="yes"/>
      <point x="353" y="407"/>
      <point x="395" y="398"/>
      <point x="455" y="352" type="curve"/>
      <point x="366" y="453" type="line"/>
      <point x="379" y="290" type="line"/>
      <point x="504" y="289" type="line"/>
      <point x="514" y="494" type="line"/>
      <point x="478" y="530"/>
      <point x="402" y="559"/>
      <point x="288" y="559" type="curve" smooth="yes"/>
      <point x="110" y="559"/>
      <point x="41" y="476"/>
      <point x="41" y="273" type="curve" smooth="yes"/>
      <point x="41" y="91"/>
      <point x="109" y="-16"/>
      <point x="291" y="-16" type="curve" smooth="yes"/>
      <point x="394" y="-16"/>
      <point x="466" y="23"/>
    </contour>
  </outline>
</glyph>
<glyph name="d" format="1">
  <advance width="622"/>
  <unicode hex="0064"/>
  <outline>
    <contour>
      <point x="229" y="-16" type="curve" smooth="yes"/>
      <point x="322" y="-16"/>
      <point x="364" y="23"/>
      <point x="377" y="132" type="curve"/>
      <point x="307" y="90" type="line"/>
      <point x="426" y="90" type="line"/>
      <point x="426" y="205" type="line"/>
      <point x="388" y="162"/>
      <point x="345" y="136"/>
      <point x="277" y="136" type="curve" smooth="yes"/>
      <point x="199" y="136"/>
      <point x="163" y="161"/>
      <point x="163" y="272" type="curve" smooth="yes"/>
      <point x="163" y="368"/>
      <point x="201" y="396"/>
      <point x="275" y="396" type="curve" smooth="yes"/>
      <point x="348" y="396"/>
      <point x="399" y="377"/>
      <point x="435" y="318" type="curve"/>
      <point x="420" y="446" type="line"/>
      <point x="311" y="446" type="line"/>
      <point x="374" y="405" type="line"/>
      <point x="361" y="510"/>
      <point x="310" y="543"/>
      <point x="213" y="543" type="curve" smooth="yes"/>
      <point x="72" y="543"/>
      <point x="29" y="452"/>
      <point x="29" y="269" type="curve" smooth="yes"/>
      <point x="29" y="62"/>
      <point x="88" y="-16"/>
    </contour>
    <contour>
      <point x="602" y="0" type="line"/>
      <point x="602" y="122" type="line"/>
      <point x="507" y="165" type="line"/>
      <point x="534" y="123" type="line"/>
      <point x="534" y="746" type="line"/>
      <point x="304" y="746" type="line"/>
      <point x="304" y="618" type="line"/>
      <point x="430" y="579" type="line"/>
      <point x="402" y="619" type="line"/>
      <point x="402" y="98" type="line"/>
      <point x="416" y="0" type="line"/>
    </contour>
  </outline>
</glyph>
<glyph name="e" format="1">
  <advance width="577"/>
  <unicode hex="0065"/>
  <outline>
    <contour>
      <point x="312" y="-16" type="curve" smooth="yes"/>
      <point x="402" y="-16"/>
      <point x="464" y="2"/>
      <point x="537" y="59" type="curve"/>
      <point x="494" y="171" type="line"/>
      <point x="431" y="142"/>
      <point x="377" y="131"/>
      <point x="314" y="132" type="curve" smooth="yes"/>
      <point x="209" y="134"/>
      <point x="173" y="157"/>
      <point x="173" y="284" type="curve" smooth="yes"/>
      <point x="173" y="380"/>
      <point x="203" y="434"/>
      <point x="299" y="434" type="curve" smooth="yes"/>
      <point x="398" y="434"/>
      <point x="417" y="395"/>
      <point x="406" y="272" type="curve"/>
      <point x="465" y="322" type="line"/>
      <point x="274" y="322" type="line" smooth="yes"/>
      <point x="237" y="322"/>
      <point x="223" y="312"/>
      <point x="210" y="243" type="curve"/>
      <point x="272" y="276" type="line"/>
      <point x="156" y="276" type="line"/>
      <point x="154" y="238" type="line"/>
      <point x="527" y="238" type="line"/>
      <point x="547" y="487"/>
      <point x="494" y="558"/>
      <point x="298" y="558" type="curve" smooth="yes"/>
      <point x="99" y="558"/>
      <point x="38" y="481"/>
      <point x="38" y="274" type="curve" smooth="yes"/>
      <point x="38" y="82"/>
      <point x="105" y="-16"/>
    </contour>
  </outline>
</glyph>
<glyph name="f" format="1">
  <advance width="473"/>
  <unicode hex="0066"/>
  <outline>
    <contour>
      <point x="36" y="0" type="line"/>
      <point x="410" y="0" type="line"/>
      <point x="410" y="130" type="line"/>
      <point x="222" y="171" type="line"/>
      <point x="262" y="114" type="line"/>
      <point x="262" y="527" type="line" smooth="yes"/>
      <point x="262" y="604"/>
      <point x="269" y="630"/>
      <point x="351" y="630" type="curve" smooth="yes"/>
      <point x="383" y="630"/>
      <point x="425" y="627"/>
      <point x="468" y="619" type="curve"/>
      <point x="491" y="737" type="line"/>
      <point x="443" y="754"/>
      <point x="365" y="767"/>
      <point x="321" y="767" type="curve" smooth="yes"/>
      <point x="192" y="767"/>
      <point x="132" y="705"/>
      <point x="133" y="547" type="curve" smooth="yes"/>
      <point x="134" y="118" type="line"/>
      <point x="173" y="172" type="line"/>
      <point x="36" y="130" type="line"/>
    </contour>
    <contour>
      <point x="190" y="355" type="line"/>
      <point x="214" y="355" type="line"/>
      <point x="437" y="390" type="line"/>
      <point x="437" y="510" type="line"/>
      <point x="213" y="535" type="line"/>
      <point x="190" y="539" type="line"/>
      <point x="41" y="511" type="line"/>
      <point x="41" y="389" type="line"/>
    </contour>
  </outline>
</glyph>
<glyph name="g" format="1">
  <advance width="624"/>
  <unicode hex="0067"/>
  <outline>
    <contour>
      <point x="35" y="267" type="curve" smooth="yes"/>
      <point x="35" y="83"/>
      <point x="82" y="10"/>
      <point x="225" y="10" type="curve" smooth="yes"/>
      <point x="325" y="10"/>
      <point x="375" y="59"/>
      <point x="375" y="138" type="curve"/>
      <point x="306" y="97" type="line"/>
      <point x="431" y="97" type="line"/>
      <point x="442" y="219" type="line"/>
      <point x="399" y="154"/>
      <point x="356" y="137"/>
      <point x="285" y="137" type="curve" smooth="yes"/>
      <point x="205" y="137"/>
      <point x="169" y="159"/>
      <point x="169" y="277" type="curve" smooth="yes"/>
      <point x="169" y="373"/>
      <point x="208" y="401"/>
      <point x="285" y="401" type="curve" smooth="yes"/>
      <point x="345" y="401"/>
      <point x="399" y="388"/>
      <point x="431" y="337" type="curve"/>
      <point x="425" y="446" type="line"/>
      <point x="344" y="446" type="line"/>
      <point x="381" y="401" type="line"/>
      <point x="362" y="518"/>
      <point x="328" y="558"/>
      <point x="229" y="558" type="curve" smooth="yes"/>
      <point x="85" y="558"/>
      <point x="35" y="470"/>
    </contour>
    <contour>
      <point x="65" y="-40" type="curve"/>
      <point x="32" y="-151" type="line"/>
      <point x="103" y="-190"/>
      <point x="164" y="-217"/>
      <point x="285" y="-217" type="curve" smooth="yes"/>
      <point x="470" y="-217"/>
      <point x="550" y="-156"/>
      <point x="550" y="76" type="curve" smooth="yes"/>
      <point x="550" y="436" type="line"/>
      <point x="520" y="378" type="line"/>
      <point x="607" y="390" type="line"/>
      <point x="607" y="540" type="line"/>
      <point x="408" y="540" type="line"/>
      <point x="408" y="88" type="line" smooth="yes"/>
      <point x="408" y="-28"/>
      <point x="398" y="-71"/>
      <point x="265" y="-71" type="curve" smooth="yes"/>
      <point x="191" y="-71"/>
      <point x="130" y="-65"/>
    </contour>
  </outline>
</glyph>
<glyph name="h" format="1">
  <advance width="647"/>
  <unicode hex="0068"/>
  <outline>
    <contour>
      <point x="629" y="122" type="line"/>
      <point x="527" y="167" type="line"/>
      <point x="567" y="74" type="line"/>
      <point x="567" y="369" type="line" smooth="yes"/>
      <point x="567" y="516"/>
      <point x="529" y="558"/>
      <point x="415" y="558" type="curve" smooth="yes"/>
      <point x="311" y="558"/>
      <point x="288" y="519"/>
      <point x="272" y="420" type="curve"/>
      <point x="326" y="446" type="line"/>
      <point x="207" y="446" type="line"/>
      <point x="204" y="329" type="line"/>
      <point x="235" y="370"/>
      <point x="285" y="394"/>
      <point x="344" y="396" type="curve" smooth="yes"/>
      <point x="418" y="397"/>
      <point x="434" y="375"/>
      <point x="434" y="303" type="curve" smooth="yes"/>
      <point x="434" y="74" type="line"/>
      <point x="466" y="166" type="line"/>
      <point x="378" y="122" type="line"/>
      <point x="378" y="0" type="line"/>
      <point x="629" y="0" type="line"/>
    </contour>
    <contour>
      <point x="295" y="0" type="line"/>
      <point x="295" y="122" type="line"/>
      <point x="207" y="166" type="line"/>
      <point x="234" y="76" type="line"/>
      <point x="234" y="746" type="line"/>
      <point x="32" y="746" type="line"/>
      <point x="32" y="618" type="line"/>
      <point x="148" y="566" type="line"/>
      <point x="100" y="667" type="line"/>
      <point x="100" y="80" type="line"/>
      <point x="131" y="166" type="line"/>
      <point x="32" y="122" type="line"/>
      <point x="32" y="0" type="line"/>
    </contour>
  </outline>
</glyph>
<glyph name="i" format="1">
  <advance width="323"/>
  <unicode hex="0069"/>
  <outline>
    <contour>
      <point x="34" y="0" type="line"/>
      <point x="301" y="0" type="line"/>
      <point x="301" y="122" type="line"/>
      <point x="212" y="165" type="line"/>
      <point x="240" y="76" type="line"/>
      <point x="240" y="540" type="line"/>
      <point x="34" y="540" type="line"/>
      <point x="34" y="411" type="line"/>
      <point x="154" y="360" type="line"/>
      <point x="106" y="460" type="line"/>
      <point x="106" y="80" type="line"/>
      <point x="136" y="165" type="line"/>
      <point x="34" y="122" type="line"/>
    </contour>
    <contour>
      <point x="144" y="615" type="curve" smooth="yes"/>
      <point x="223" y="615"/>
      <point x="247" y="636"/>
      <point x="247" y="711" type="curve" smooth="yes"/>
      <point x="247" y="786"/>
      <point x="223" y="808"/>
      <point x="144" y="808" type="curve" smooth="yes"/>
      <point x="64" y="808"/>
      <point x="40" y="786"/>
      <point x="40" y="712" type="curve" smooth="yes"/>
      <point x="40" y="639"/>
      <point x="64" y="616"/>
    </contour>
  </outline>
</glyph>
<glyph name="j" format="1">
  <advance width="317"/>
  <unicode hex="006A"/>
  <outline>
    <contour>
      <point x="-65" y="-58" type="curve"/>
      <point x="-93" y="-187" type="line"/>
      <point x="-46" y="-204"/>
      <point x="14" y="-223"/>
      <point x="60" y="-223" type="curve" smooth="yes"/>
      <point x="186" y="-223"/>
      <point x="260" y="-187"/>
      <point x="260" y="39" type="curve" smooth="yes"/>
      <point x="258" y="540" type="line"/>
      <point x="19" y="540" type="line"/>
      <point x="19" y="398" type="line"/>
      <point x="177" y="361" type="line"/>
      <point x="129" y="459" type="line"/>
      <point x="129" y="79" type="line" smooth="yes"/>
      <point x="129" y="-38"/>
      <point x="124" y="-70"/>
      <point x="40" y="-70" type="curve" smooth="yes"/>
      <point x="11" y="-70"/>
      <point x="-27" y="-65"/>
    </contour>
    <contour>
      <point x="160" y="636" type="curve"/>
      <point x="218" y="636"/>
      <point x="246" y="660"/>
      <point x="246" y="720" type="curve" smooth="yes"/>
      <point x="246" y="784"/>
      <point x="217" y="804"/>
      <point x="157" y="804" type="curve"/>
      <point x="92" y="804"/>
      <point x="66" y="782"/>
      <point x="66" y="720" type="curve" smooth="yes"/>
      <point x="66" y="657"/>
      <point x="93" y="636"/>
    </contour>
  </outline>
</glyph>
<glyph name="l" format="1">
  <advance width="320"/>
  <unicode hex="006C"/>
  <outline>
    <contour>
      <point x="298" y="0" type="line"/>
      <point x="298" y="122" type="line"/>
      <point x="209" y="165" type="line"/>
      <point x="236" y="76" type="line"/>
      <point x="236" y="746" type="line"/>
      <point x="31" y="746" type="line"/>
      <point x="31" y="618" type="line"/>
      <point x="151" y="566" type="line"/>
      <point x="103" y="667" type="line"/>
      <point x="103" y="80" type="line"/>
      <point x="133" y="165" type="line"/>
      <point x="31" y="122" type="line"/>
      <point x="31" y="0" type="line"/>
    </contour>
  </outline>
</glyph>
<glyph name="m" format="1">
  <advance width="1007"/>
  <unicode hex="006D"/>
  <outline>
    <contour>
      <point x="43" y="-1" type="line"/>
      <point x="317" y="-1" type="line"/>
      <point x="317" y="122" type="line"/>
      <point x="217" y="168" type="line"/>
      <point x="257" y="78" type="line"/>
      <point x="257" y="540" type="line"/>
      <point x="43" y="540" type="line"/>
      <point x="43" y="411" type="line"/>
      <point x="159" y="365" type="line"/>
      <point x="116" y="460" type="line"/>
      <point x="116" y="82" type="line"/>
      <point x="141" y="168" type="line"/>
      <point x="43" y="122" type="line"/>
    </contour>
    <contour>
      <point x="388" y="-1" type="line"/>
      <point x="644" y="-1" type="line"/>
      <point x="644" y="120" type="line"/>
      <point x="536" y="175" type="line"/>
      <point x="589" y="76" type="line"/>
      <point x="589" y="366" type="line" smooth="yes"/>
      <point x="589" y="510"/>
      <point x="535" y="558"/>
      <point x="439" y="558" type="curve" smooth="yes"/>
      <point x="342" y="558"/>
      <point x="310" y="519"/>
      <point x="294" y="420" type="curve"/>
      <point x="335" y="446" type="line"/>
      <point x="217" y="446" type="line"/>
      <point x="214" y="332" type="line"/>
      <point x="253" y="385"/>
      <point x="304" y="400"/>
      <point x="359" y="400" type="curve" smooth="yes"/>
      <point x="423" y="400"/>
      <point x="442" y="375"/>
      <point x="442" y="303" type="curve" smooth="yes"/>
      <point x="442" y="76" type="line"/>
      <point x="468" y="168" type="line"/>
      <point x="388" y="122" type="line"/>
    </contour>
    <contour>
      <point x="721" y="-1" type="line"/>
      <point x="984" y="-1" type="line"/>
      <point x="984" y="130" type="line"/>
      <point x="882" y="169" type="line"/>
      <point x="922" y="76" type="line"/>
      <point x="922" y="366" type="line" smooth="yes"/>
      <point x="922" y="509"/>
      <point x="877" y="558"/>
      <point x="772" y="558" type="curve" smooth="yes"/>
      <point x="668" y="558"/>
      <point x="636" y="519"/>
      <point x="621" y="420" type="curve"/>
      <point x="668" y="446" type="line"/>
      <point x="550" y="446" type="line"/>
      <point x="547" y="332" type="line"/>
      <point x="586" y="385"/>
      <point x="644" y="400"/>
      <point x="699" y="400" type="curve" smooth="yes"/>
      <point x="762" y="400"/>
      <point x="775" y="375"/>
      <point x="775" y="303" type="curve" smooth="yes"/>
      <point x="775" y="76" type="line"/>
      <point x="808" y="168" type="line"/>
      <point x="721" y="120" type="line"/>
    </contour>
  </outline>
</glyph>
<glyph name="n" format="1">
  <advance width="648"/>
  <unicode hex="006E"/>
  <outline>
    <contour>
      <point x="34" y="0" type="line"/>
      <point x="296" y="0" type="line"/>
      <point x="296" y="122" type="line"/>
      <point x="208" y="166" type="line"/>
      <point x="235" y="76" type="line"/>
      <point x="235" y="540" type="line"/>
      <point x="34" y="540" type="line"/>
      <point x="34" y="411" type="line"/>
      <point x="149" y="360" type="line"/>
      <point x="101" y="460" type="line"/>
      <point x="101" y="80" type="line"/>
      <point x="132" y="166" type="line"/>
      <point x="34" y="122" type="line"/>
    </contour>
    <contour>
      <point x="380" y="0" type="line"/>
      <point x="630" y="0" type="line"/>
      <point x="630" y="122" type="line"/>
      <point x="528" y="167" type="line"/>
      <point x="568" y="74" type="line"/>
      <point x="568" y="369" type="line" smooth="yes"/>
      <point x="568" y="516"/>
      <point x="530" y="558"/>
      <point x="416" y="558" type="curve" smooth="yes"/>
      <point x="313" y="558"/>
      <point x="289" y="519"/>
      <point x="274" y="420" type="curve"/>
      <point x="328" y="446" type="line"/>
      <point x="208" y="446" type="line"/>
      <point x="206" y="329" type="line"/>
      <point x="236" y="370"/>
      <point x="286" y="394"/>
      <point x="346" y="396" type="curve" smooth="yes"/>
      <point x="419" y="397"/>
      <point x="435" y="375"/>
      <point x="435" y="303" type="curve" smooth="yes"/>
      <point x="435" y="74" type="line"/>
      <point x="468" y="166" type="line"/>
      <point x="380" y="122" type="line"/>
    </contour>
  </outline>
</glyph>
<glyph name="o" format="1">
  <advance width="573"/>
  <unicode hex="006F"/>
  <outline>
    <contour>
      <point x="287" y="-15" type="curve" smooth="yes"/>
      <point x="469" y="-15"/>
      <point x="542" y="68"/>
      <point x="542" y="272" type="curve" smooth="yes"/>
      <point x="542" y="474"/>
      <point x="469" y="559"/>
      <point x="287" y="559" type="curve" smooth="yes"/>
      <point x="103" y="559"/>
      <point x="31" y="474"/>
      <point x="31" y="272" type="curve" smooth="yes"/>
      <point x="31" y="68"/>
      <point x="103" y="-15"/>
    </contour>
    <contour>
      <point x="287" y="133" type="curve" smooth="yes"/>
      <point x="202" y="133"/>
      <point x="167" y="162"/>
      <point x="167" y="272" type="curve" smooth="yes"/>
      <point x="167" y="381"/>
      <point x="202" y="411"/>
      <point x="287" y="411" type="curve" smooth="yes"/>
      <point x="372" y="411"/>
      <point x="405" y="381"/>
      <point x="405" y="272" type="curve" smooth="yes"/>
      <point x="405" y="162"/>
      <point x="372" y="133"/>
    </contour>
  </outline>
</glyph>
<glyph name="p" format="1">
  <advance width="621"/>
  <unicode hex="0070"/>
  <outline>
    <contour>
      <point x="15" y="-210" type="line"/>
      <point x="15" y="-103" type="line"/>
      <point x="115" y="-64" type="line"/>
      <point x="86" y="-111" type="line"/>
      <point x="86" y="461" type="line"/>
      <point x="115" y="366" type="line"/>
      <point x="26" y="378" type="line"/>
      <point x="26" y="540" type="line"/>
      <point x="219" y="540" type="line"/>
      <point x="219" y="-108" type="line"/>
      <point x="193" y="-58" type="line"/>
      <point x="368" y="-109" type="line"/>
      <point x="368" y="-210" type="line"/>
    </contour>
    <contour>
      <point x="591" y="277" type="curve" smooth="yes"/>
      <point x="591" y="80"/>
      <point x="545" y="-8"/>
      <point x="395" y="-8" type="curve" smooth="yes"/>
      <point x="308" y="-8"/>
      <point x="248" y="34"/>
      <point x="247" y="138" type="curve"/>
      <point x="309" y="97" type="line"/>
      <point x="190" y="97" type="line"/>
      <point x="180" y="228" type="line"/>
      <point x="223" y="159"/>
      <point x="273" y="138"/>
      <point x="344" y="138" type="curve" smooth="yes"/>
      <point x="421" y="138"/>
      <point x="456" y="166"/>
      <point x="456" y="271" type="curve" smooth="yes"/>
      <point x="456" y="378"/>
      <point x="418" y="404"/>
      <point x="343" y="404" type="curve" smooth="yes"/>
      <point x="273" y="404"/>
      <point x="231" y="381"/>
      <point x="198" y="342" type="curve"/>
      <point x="203" y="452" type="line"/>
      <point x="311" y="452" type="line"/>
      <point x="242" y="411" type="line"/>
      <point x="266" y="526"/>
      <point x="299" y="558"/>
      <point x="403" y="558" type="curve" smooth="yes"/>
      <point x="535" y="558"/>
      <point x="591" y="475"/>
    </contour>
  </outline>
</glyph>
<glyph name="q" format="1">
  <advance width="630"/>
  <unicode hex="0071"/>
  <outline>
    <contour>
      <point x="33" y="277" type="curve" smooth="yes"/>
      <point x="33" y="80"/>
      <point x="80" y="-8"/>
      <point x="229" y="-8" type="curve" smooth="yes"/>
      <point x="317" y="-8"/>
      <point x="376" y="34"/>
      <point x="378" y="138" type="curve"/>
      <point x="315" y="96" type="line"/>
      <point x="434" y="96" type="line"/>
      <point x="444" y="229" type="line"/>
      <point x="401" y="160"/>
      <point x="351" y="137"/>
      <point x="281" y="137" type="curve" smooth="yes"/>
      <point x="203" y="137"/>
      <point x="168" y="166"/>
      <point x="168" y="271" type="curve" smooth="yes"/>
      <point x="168" y="378"/>
      <point x="206" y="404"/>
      <point x="281" y="404" type="curve" smooth="yes"/>
      <point x="352" y="404"/>
      <point x="393" y="380"/>
      <point x="426" y="342" type="curve"/>
      <point x="421" y="452" type="line"/>
      <point x="313" y="452" type="line"/>
      <point x="382" y="411" type="line"/>
      <point x="358" y="526"/>
      <point x="325" y="558"/>
      <point x="221" y="558" type="curve" smooth="yes"/>
      <point x="89" y="558"/>
      <point x="33" y="475"/>
    </contour>
    <contour>
      <point x="248" y="-210" type="line"/>
      <point x="617" y="-210" type="line"/>
      <point x="617" y="-79" type="line"/>
      <point x="496" y="-44" type="line"/>
      <point x="538" y="-95" type="line"/>
      <point x="538" y="541" type="line"/>
      <point x="429" y="541" type="line"/>
      <point x="404" y="446" type="line"/>
      <point x="404" y="-93" type="line"/>
      <point x="443" y="-42" type="line"/>
      <point x="248" y="-87" type="line"/>
    </contour>
    <contour>
      <point x="481" y="359" type="line"/>
      <point x="589" y="359" type="line"/>
      <point x="589" y="541" type="line"/>
      <point x="481" y="541" type="line"/>
    </contour>
  </outline>
</glyph>
<glyph name="s" format="1">
  <advance width="514"/>
  <unicode hex="0073"/>
  <outline>
    <contour>
      <point x="445" y="368" type="line"/>
      <point x="461" y="526" type="line"/>
      <point x="416" y="543"/>
      <point x="356" y="559"/>
      <point x="270" y="559" type="curve" smooth="yes"/>
      <point x="104" y="558"/>
      <point x="42" y="514"/>
      <point x="43" y="389" type="curve" smooth="yes"/>
      <point x="43" y="285"/>
      <point x="93" y="241"/>
      <point x="230" y="227" type="curve" smooth="yes"/>
      <point x="240" y="226" type="line" smooth="yes"/>
      <point x="320" y="218"/>
      <point x="338" y="207"/>
      <point x="338" y="167" type="curve" smooth="yes"/>
      <point x="338" y="123"/>
      <point x="307" y="113"/>
      <point x="240" y="114" type="curve" smooth="yes"/>
      <point x="169" y="114"/>
      <point x="130" y="127"/>
      <point x="81" y="150" type="curve"/>
      <point x="163" y="72" type="line"/>
      <point x="159" y="186" type="line"/>
      <point x="57" y="191" type="line"/>
      <point x="32" y="29" type="line"/>
      <point x="102" y="2"/>
      <point x="147" y="-12"/>
      <point x="249" y="-15" type="curve" smooth="yes"/>
      <point x="404" y="-19"/>
      <point x="482" y="38"/>
      <point x="481" y="150" type="curve" smooth="yes"/>
      <point x="481" y="265"/>
      <point x="444" y="303"/>
      <point x="303" y="318" type="curve" smooth="yes"/>
      <point x="292" y="319" type="line" smooth="yes"/>
      <point x="204" y="328"/>
      <point x="186" y="339"/>
      <point x="187" y="383" type="curve" smooth="yes"/>
      <point x="187" y="421"/>
      <point x="203" y="436"/>
      <point x="265" y="436" type="curve" smooth="yes"/>
      <point x="303" y="436"/>
      <point x="328" y="435"/>
      <point x="385" y="415" type="curve"/>
      <point x="330" y="500" type="line"/>
      <point x="339" y="369" type="line"/>
    </contour>
  </outline>
</glyph>
<glyph name="t" format="1">
  <advance width="428"/>
  <unicode hex="0074"/>
  <outline>
    <contour>
      <point x="87" y="281" type="line"/>
      <point x="87" y="135" type="line" smooth="yes"/>
      <point x="87" y="39"/>
      <point x="124" y="-18"/>
      <point x="248" y="-18" type="curve" smooth="yes"/>
      <point x="305" y="-18"/>
      <point x="362" y="-3"/>
      <point x="416" y="42" type="curve"/>
      <point x="378" y="151" type="line"/>
      <point x="345" y="137"/>
      <point x="332" y="135"/>
      <point x="293" y="134" type="curve"/>
      <point x="236" y="134"/>
      <point x="221" y="159"/>
      <point x="221" y="233" type="curve" smooth="yes"/>
      <point x="221" y="640" type="line"/>
      <point x="87" y="640" type="line"/>
    </contour>
    <contour>
      <point x="3" y="523" type="line"/>
      <point x="3" y="391" type="line"/>
      <point x="119" y="379" type="line"/>
      <point x="164" y="379" type="line"/>
      <point x="372" y="392" type="line"/>
      <point x="372" y="522" type="line"/>
      <point x="156" y="539" type="line"/>
      <point x="118" y="538" type="line"/>
    </contour>
  </outline>
</glyph>
<glyph name="u" format="1">
  <advance width="657"/>
  <unicode hex="0075"/>
  <outline>
    <contour>
      <point x="325" y="94" type="line"/>
      <point x="437" y="94" type="line"/>
      <point x="433" y="218" type="line"/>
      <point x="397" y="160"/>
      <point x="361" y="135"/>
      <point x="308" y="135" type="curve" smooth="yes"/>
      <point x="234" y="135"/>
      <point x="208" y="157"/>
      <point x="208" y="237" type="curve" smooth="yes"/>
      <point x="208" y="540" type="line"/>
      <point x="17" y="540" type="line"/>
      <point x="17" y="417" type="line"/>
      <point x="119" y="386" type="line"/>
      <point x="75" y="472" type="line"/>
      <point x="75" y="157" type="line" smooth="yes"/>
      <point x="75" y="35"/>
      <point x="118" y="-18"/>
      <point x="230" y="-18" type="curve" smooth="yes"/>
      <point x="335" y="-18"/>
      <point x="356" y="21"/>
      <point x="378" y="120" type="curve"/>
    </contour>
    <contour>
      <point x="410" y="0" type="line"/>
      <point x="609" y="0" type="line"/>
      <point x="609" y="130" type="line"/>
      <point x="495" y="186" type="line"/>
      <point x="544" y="80" type="line"/>
      <point x="544" y="412" type="line"/>
      <point x="523" y="363" type="line"/>
      <point x="589" y="392" type="line"/>
      <point x="589" y="540" type="line"/>
      <point x="342" y="540" type="line"/>
      <point x="342" y="417" type="line"/>
      <point x="441" y="388" type="line"/>
      <point x="410" y="470" type="line"/>
    </contour>
  </outline>
</glyph>
<glyph name="v" format="1">
  <advance width="630"/>
  <unicode hex="0076"/>
  <outline>
    <contour>
      <point x="212" y="0" type="line"/>
      <point x="410" y="0" type="line"/>
      <point x="600" y="468" type="line"/>
      <point x="482" y="353" type="line"/>
      <point x="637" y="411" type="line"/>
      <point x="637" y="540" type="line"/>
      <point x="349" y="540" type="line"/>
      <point x="349" y="411" type="line"/>
      <point x="458" y="362" type="line"/>
      <point x="444" y="445" type="line"/>
      <point x="305" y="55" type="line"/>
      <point x="327" y="55" type="line"/>
      <point x="185" y="447" type="line"/>
      <point x="161" y="358" type="line"/>
      <point x="283" y="411" type="line"/>
      <point x="283" y="540" type="line"/>
      <point x="-11" y="540" type="line"/>
      <point x="-11" y="411" type="line"/>
      <point x="84" y="376" type="line"/>
      <point x="33" y="445" type="line"/>
    </contour>
    <contour>
      <point x="252" y="67" type="line"/>
      <point x="374" y="67" type="line"/>
      <point x="374" y="148" type="line"/>
      <point x="252" y="148" type="line"/>
    </contour>
  </outline>
</glyph>
<glyph name="dieresis" format="1">
  <advance width="403"/>
  <unicode hex="00A8"/>
  <outline>
    <contour>
      <point x="97" y="609" type="curve" smooth="yes"/>
      <point x="148" y="609"/>
      <point x="166" y="626"/>
      <point x="166" y="679" type="curve" smooth="yes"/>
      <point x="166" y="732"/>
      <point x="146" y="749"/>
      <point x="97" y="749" type="curve" smooth="yes"/>
      <point x="49" y="749"/>
      <point x="29" y="731"/>
      <point x="29" y="679" type="curve" smooth="yes"/>
      <point x="29" y="625"/>
      <point x="49" y="609"/>
    </contour>
    <contour>
      <point x="305" y="609" type="curve" smooth="yes"/>
      <point x="352" y="609"/>
      <point x="374" y="626"/>
      <point x="374" y="679" type="curve" smooth="yes"/>
      <point x="374" y="732"/>
      <point x="353" y="749"/>
      <point x="305" y="749" type="curve" smooth="yes"/>
      <point x="256" y="749"/>
      <point x="237" y="731"/>
      <point x="237" y="679" type="curve" smooth="yes"/>
      <point x="237" y="625"/>
      <point x="257" y="609"/>
    </contour>
  </outline>
</glyph>
<glyph name="acute" format="1">
  <advance width="621"/>
  <unicode hex="00B4"/>
  <outline>
    <contour>
      <point x="349" y="855" type="line"/>
      <point x="445" y="825" type="line"/>
      <point x="337" y="636" type="line"/>
      <point x="275" y="652" type="line"/>
    </contour>
  </outline>
</glyph>
<glyph name="Aacute" format="1">
  <advance width="630"/>
  <unicode hex="00C1"/>
  <outline>
    <contour>
      <point x="306" y="899" type="line"/>
      <point x="368" y="862" type="line"/>
      <point x="495" y="880" type="line"/>
      <point x="413" y="961" type="line"/>
    </contour>
    <component base="A"/>
  </outline>
</glyph>
<glyph name="Udieresis" format="1">
  <advance width="806"/>
  <unicode hex="00DC"/>
  <outline>
    <contour>
      <point x="148" y="836" type="curve"/>
      <point x="162" y="836"/>
      <point x="258" y="843"/>
      <point x="258" y="859" type="curve" smooth="yes"/>
      <point x="258" y="877"/>
      <point x="251" y="958"/>
      <point x="237" y="958" type="curve"/>
      <point x="221" y="958"/>
      <point x="126" y="953"/>
      <point x="126" y="935" type="curve" smooth="yes"/>
      <point x="126" y="919"/>
      <point x="132" y="836"/>
    </contour>
    <contour>
      <point x="546" y="833" type="curve"/>
      <point x="560" y="833"/>
      <point x="656" y="840"/>
      <point x="656" y="856" type="curve" smooth="yes"/>
      <point x="656" y="874"/>
      <point x="649" y="955"/>
      <point x="635" y="955" type="curve"/>
      <point x="619" y="955"/>
      <point x="523" y="950"/>
      <point x="523" y="932" type="curve" smooth="yes"/>
      <point x="523" y="916"/>
      <point x="530" y="833"/>
    </contour>
    <component base="U"/>
  </outline>
</glyph>
<glyph name="tilde" format="1">
  <advance width="440"/>
  <unicode hex="02DC"/>
  <outline>
    <contour>
      <point x="289" y="717" type="curve"/>
      <point x="227" y="717"/>
      <point x="218" y="779"/>
      <point x="147" y="779" type="curve" smooth="yes"/>
      <point x="93" y="779"/>
      <point x="56" y="757"/>
      <point x="60" y="709" type="curve" smooth="yes"/>
      <point x="65" y="644" type="line"/>
      <point x="112" y="644" type="line"/>
      <point x="123" y="721" type="line"/>
      <point x="106" y="688" type="line"/>
      <point x="119" y="698"/>
      <point x="126" y="706"/>
      <point x="148" y="706" type="curve" smooth="yes"/>
      <point x="200" y="706"/>
      <point x="202" y="644"/>
      <point x="289" y="644" type="curve"/>
      <point x="343" y="644"/>
      <point x="380" y="666"/>
      <point x="376" y="714" type="curve" smooth="yes"/>
      <point x="371" y="779" type="line"/>
      <point x="324" y="779" type="line"/>
      <point x="313" y="702" type="line"/>
      <point x="330" y="735" type="line"/>
      <point x="315" y="723"/>
      <point x="308" y="717"/>
    </contour>
  </outline>
</glyph>
<glyph name="quoteright" format="1">
  <advance width="500"/>
  <unicode hex="2019"/>
  <outline>
    <contour>
      <point x="226" y="738" type="curve" smooth="yes"/>
      <point x="226" y="794"/>
      <point x="209" y="809"/>
      <point x="152" y="809" type="curve" smooth="yes"/>
      <point x="95" y="809"/>
      <point x="78" y="793"/>
      <point x="78" y="737" type="curve" smooth="yes"/>
      <point x="78" y="693"/>
      <point x="96" y="673"/>
      <point x="129" y="673" type="curve"/>
      <point x="153" y="673"/>
      <point x="165" y="676"/>
      <point x="178" y="683" type="curve"/>
      <point x="163" y="696" type="line"/>
      <point x="99" y="560" type="line"/>
      <point x="137" y="540" type="line"/>
      <point x="215" y="651"/>
      <point x="226" y="672"/>
    </contour>
  </outline>
</glyph>
<glyph name="apostrophe" format="1">
  <advance width="200"/>
  <outline>
    <contour>
      <point x="50" y="750" type="line"/>
      <point x="150" y="750" type="line"/>
      <point x="128" y="516" type="line"/>
      <point x="68" y="516" type="line"/>
    </contour>
  </outline>
</glyph>
<glyph name="bocetoAcentos" format="1">
  <advance width="3960"/>
  <outline>
    <contour>
      <point x="1363" y="637" type="curve" smooth="yes"/>
      <point x="1413" y="637"/>
      <point x="1426" y="650"/>
      <point x="1426" y="699" type="curve" smooth="yes"/>
      <point x="1426" y="748"/>
      <point x="1413" y="761"/>
      <point x="1363" y="761" type="curve" smooth="yes"/>
      <point x="1313" y="761"/>
      <point x="1300" y="748"/>
      <point x="1300" y="699" type="curve" smooth="yes"/>
      <point x="1300" y="650"/>
      <point x="1313" y="637"/>
    </contour>
    <contour>
      <point x="339" y="855" type="line"/>
      <point x="435" y="825" type="line"/>
      <point x="327" y="636" type="line"/>
      <point x="265" y="652" type="line"/>
    </contour>
    <contour>
      <point x="404" y="0" type="line"/>
      <point x="404" y="327" type="line"/>
      <point x="404" y="429"/>
      <point x="377" y="472"/>
      <point x="270" y="472" type="curve" smooth="yes"/>
      <point x="218" y="472"/>
      <point x="172" y="468"/>
      <point x="108" y="445" type="curve"/>
      <point x="82" y="506" type="line"/>
      <point x="153" y="543"/>
      <point x="213" y="560"/>
      <point x="280" y="560" type="curve" smooth="yes"/>
      <point x="438" y="560"/>
      <point x="492" y="499"/>
      <point x="492" y="324" type="curve" smooth="yes"/>
      <point x="492" y="45" type="line"/>
      <point x="462" y="80" type="line"/>
      <point x="556" y="64" type="line"/>
      <point x="556" y="0" type="line"/>
    </contour>
    <contour>
      <point x="226" y="-15" type="curve" smooth="yes"/>
      <point x="103" y="-15"/>
      <point x="46" y="37"/>
      <point x="46" y="155" type="curve" smooth="yes"/>
      <point x="46" y="279"/>
      <point x="108" y="334"/>
      <point x="246" y="334" type="curve" smooth="yes"/>
      <point x="309" y="334"/>
      <point x="375" y="327"/>
      <point x="421" y="253" type="curve"/>
      <point x="424" y="199" type="line"/>
      <point x="383" y="239"/>
      <point x="341" y="252"/>
      <point x="246" y="252" type="curve" smooth="yes"/>
      <point x="163" y="252"/>
      <point x="135" y="221"/>
      <point x="135" y="156" type="curve" smooth="yes"/>
      <point x="135" y="97"/>
      <point x="162" y="73"/>
      <point x="246" y="73" type="curve" smooth="yes"/>
      <point x="332" y="73"/>
      <point x="388" y="98"/>
      <point x="419" y="136" type="curve"/>
      <point x="434" y="65" type="line"/>
      <point x="344" y="61" type="line"/>
      <point x="386" y="88" type="line"/>
      <point x="353" y="-6"/>
      <point x="299" y="-15"/>
    </contour>
    <contour>
      <point x="1250" y="0" type="line"/>
      <point x="1486" y="0" type="line"/>
      <point x="1486" y="60" type="line"/>
      <point x="1384" y="95" type="line"/>
      <point x="1412" y="56" type="line"/>
      <point x="1412" y="540" type="line"/>
      <point x="1250" y="540" type="line"/>
      <point x="1250" y="480" type="line"/>
      <point x="1353" y="443" type="line"/>
      <point x="1324" y="485" type="line"/>
      <point x="1324" y="56" type="line"/>
      <point x="1352" y="95" type="line"/>
      <point x="1250" y="60" type="line"/>
    </contour>
    <contour>
      <point x="918" y="431" type="line"/>
      <point x="1021" y="429" type="line"/>
      <point x="1021" y="552" type="line"/>
      <point x="917" y="554" type="line"/>
    </contour>
    <contour>
      <point x="1850" y="0" type="line"/>
      <point x="2086" y="0" type="line"/>
      <point x="2086" y="60" type="line"/>
      <point x="1984" y="95" type="line"/>
      <point x="2012" y="56" type="line"/>
      <point x="2012" y="540" type="line"/>
      <point x="1850" y="540" type="line"/>
      <point x="1850" y="480" type="line"/>
      <point x="1953" y="443" type="line"/>
      <point x="1924" y="485" type="line"/>
      <point x="1924" y="56" type="line"/>
      <point x="1952" y="95" type="line"/>
      <point x="1850" y="60" type="line"/>
    </contour>
    <contour>
      <point x="1899" y="655" type="line"/>
      <point x="2010" y="655" type="line"/>
      <point x="2010" y="765" type="line"/>
      <point x="1899" y="765" type="line"/>
    </contour>
    <contour>
      <point x="2650" y="0" type="line"/>
      <point x="2886" y="0" type="line"/>
      <point x="2886" y="60" type="line"/>
      <point x="2784" y="95" type="line"/>
      <point x="2812" y="56" type="line"/>
      <point x="2812" y="540" type="line"/>
      <point x="2650" y="540" type="line"/>
      <point x="2650" y="480" type="line"/>
      <point x="2753" y="443" type="line"/>
      <point x="2724" y="485" type="line"/>
      <point x="2724" y="56" type="line"/>
      <point x="2752" y="95" type="line"/>
      <point x="2650" y="60" type="line"/>
    </contour>
    <contour>
      <point x="2751" y="654" type="curve" smooth="yes"/>
      <point x="2814" y="654"/>
      <point x="2814" y="654"/>
      <point x="2814" y="716" type="curve" smooth="yes"/>
      <point x="2814" y="778"/>
      <point x="2814" y="778"/>
      <point x="2751" y="778" type="curve" smooth="yes"/>
      <point x="2688" y="778"/>
      <point x="2688" y="778"/>
      <point x="2688" y="716" type="curve" smooth="yes"/>
      <point x="2688" y="654"/>
      <point x="2688" y="654"/>
    </contour>
    <contour>
      <point x="2413" y="395" type="curve" smooth="yes"/>
      <point x="2463" y="395"/>
      <point x="2476" y="408"/>
      <point x="2476" y="457" type="curve" smooth="yes"/>
      <point x="2476" y="506"/>
      <point x="2463" y="519"/>
      <point x="2413" y="519" type="curve" smooth="yes"/>
      <point x="2363" y="519"/>
      <point x="2350" y="506"/>
      <point x="2350" y="457" type="curve" smooth="yes"/>
      <point x="2350" y="408"/>
      <point x="2363" y="395"/>
    </contour>
    <contour>
      <point x="2486" y="50" type="curve" smooth="yes"/>
      <point x="2486" y="107"/>
      <point x="2482" y="111"/>
      <point x="2413" y="111" type="curve" smooth="yes"/>
      <point x="2354" y="111"/>
      <point x="2350" y="107"/>
      <point x="2350" y="49" type="curve" smooth="yes"/>
      <point x="2350" y="-3"/>
      <point x="2352" y="-6"/>
      <point x="2390" y="-6" type="curve"/>
      <point x="2402" y="-6"/>
      <point x="2413" y="-4"/>
      <point x="2426" y="-1" type="curve"/>
      <point x="2419" y="14" type="line"/>
      <point x="2363" y="-84" type="line"/>
      <point x="2416" y="-109" type="line"/>
      <point x="2482" y="-27"/>
      <point x="2486" y="-17"/>
    </contour>
    <contour>
      <point x="1313" y="644" type="line"/>
      <point x="1402" y="644" type="line"/>
      <point x="1414" y="766" type="line"/>
      <point x="1310" y="768" type="line"/>
    </contour>
    <contour>
      <point x="952" y="-103" type="line"/>
      <point x="1009" y="84" type="line"/>
      <point x="907" y="104" type="line"/>
      <point x="882" y="-99" type="line"/>
    </contour>
    <contour>
      <point x="3228" y="540" type="line"/>
      <point x="3080" y="540" type="line"/>
      <point x="3080" y="480" type="line"/>
      <point x="3168" y="443" type="line"/>
      <point x="3140" y="485" type="line"/>
      <point x="3140" y="56" type="line"/>
      <point x="3168" y="98" type="line"/>
      <point x="3080" y="60" type="line"/>
      <point x="3080" y="0" type="line"/>
      <point x="3301" y="0" type="line"/>
      <point x="3301" y="60" type="line"/>
      <point x="3200" y="96" type="line"/>
      <point x="3228" y="56" type="line"/>
    </contour>
    <contour>
      <point x="3210" y="383" type="line"/>
      <point x="3253" y="440"/>
      <point x="3301" y="470"/>
      <point x="3373" y="470" type="curve" smooth="yes"/>
      <point x="3462" y="470"/>
      <point x="3488" y="436"/>
      <point x="3488" y="335" type="curve" smooth="yes"/>
      <point x="3488" y="56" type="line"/>
      <point x="3516" y="96" type="line"/>
      <point x="3415" y="60" type="line"/>
      <point x="3415" y="0" type="line"/>
      <point x="3630" y="0" type="line"/>
      <point x="3630" y="60" type="line"/>
      <point x="3549" y="99" type="line"/>
      <point x="3576" y="56" type="line"/>
      <point x="3576" y="359" type="line" smooth="yes"/>
      <point x="3576" y="494"/>
      <point x="3536" y="558"/>
      <point x="3411" y="558" type="curve" smooth="yes"/>
      <point x="3321" y="558"/>
      <point x="3284" y="529"/>
      <point x="3249" y="444" type="curve"/>
      <point x="3288" y="470" type="line"/>
      <point x="3198" y="470" type="line"/>
    </contour>
    <contour>
      <point x="3664" y="610" type="curve" smooth="yes"/>
      <point x="3706" y="610"/>
      <point x="3730" y="634"/>
      <point x="3730" y="675" type="curve" smooth="yes"/>
      <point x="3730" y="716"/>
      <point x="3706" y="740"/>
      <point x="3664" y="740" type="curve" smooth="yes"/>
      <point x="3623" y="740"/>
      <point x="3599" y="716"/>
      <point x="3599" y="675" type="curve" smooth="yes"/>
      <point x="3599" y="634"/>
      <point x="3623" y="610"/>
    </contour>
    <contour>
      <point x="3864" y="610" type="curve" smooth="yes"/>
      <point x="3926" y="610"/>
      <point x="3930" y="614"/>
      <point x="3930" y="675" type="curve" smooth="yes"/>
      <point x="3930" y="736"/>
      <point x="3926" y="740"/>
      <point x="3864" y="740" type="curve" smooth="yes"/>
      <point x="3803" y="740"/>
      <point x="3799" y="736"/>
      <point x="3799" y="675" type="curve" smooth="yes"/>
      <point x="3799" y="614"/>
      <point x="3803" y="610"/>
    </contour>
    <contour>
      <point x="3420" y="722" type="curve"/>
      <point x="3358" y="722"/>
      <point x="3349" y="784"/>
      <point x="3278" y="784" type="curve" smooth="yes"/>
      <point x="3224" y="784"/>
      <point x="3187" y="762"/>
      <point x="3191" y="714" type="curve" smooth="yes"/>
      <point x="3196" y="649" type="line"/>
      <point x="3243" y="649" type="line"/>
      <point x="3254" y="726" type="line"/>
      <point x="3237" y="693" type="line"/>
      <point x="3250" y="703"/>
      <point x="3257" y="711"/>
      <point x="3279" y="711" type="curve" smooth="yes"/>
      <point x="3331" y="711"/>
      <point x="3333" y="649"/>
      <point x="3420" y="649" type="curve"/>
      <point x="3474" y="649"/>
      <point x="3511" y="671"/>
      <point x="3507" y="719" type="curve" smooth="yes"/>
      <point x="3502" y="784" type="line"/>
      <point x="3455" y="784" type="line"/>
      <point x="3444" y="707" type="line"/>
      <point x="3461" y="740" type="line"/>
      <point x="3446" y="728"/>
      <point x="3439" y="722"/>
    </contour>
  </outline>
</glyph>
<glyph name="g.alt" format="1">
  <advance width="722"/>
  <outline>
    <contour>
      <point x="116" y="-25" type="curve"/>
      <point x="101" y="-176" type="line"/>
      <point x="150" y="-192"/>
      <point x="219" y="-220"/>
      <point x="353" y="-220" type="curve" smooth="yes"/>
      <point x="540" y="-220"/>
      <point x="614" y="-159"/>
      <point x="610" y="100" type="curve" smooth="yes"/>
      <point x="604" y="540" type="line"/>
      <point x="460" y="540" type="line"/>
      <point x="460" y="102" type="line" smooth="yes"/>
      <point x="460" y="-13"/>
      <point x="452" y="-54"/>
      <point x="324" y="-54" type="curve" smooth="yes"/>
      <point x="250" y="-54"/>
      <point x="188" y="-50"/>
    </contour>
    <contour>
      <point x="60" y="279" type="curve" smooth="yes"/>
      <point x="60" y="95"/>
      <point x="93" y="0"/>
      <point x="262" y="0" type="curve" smooth="yes"/>
      <point x="393" y="0"/>
      <point x="402" y="76"/>
      <point x="402" y="162" type="curve"/>
      <point x="340" y="114" type="line"/>
      <point x="471" y="114" type="line"/>
      <point x="471" y="242" type="line"/>
      <point x="434" y="168"/>
      <point x="394" y="173"/>
      <point x="322" y="173" type="curve" smooth="yes"/>
      <point x="251" y="173"/>
      <point x="214" y="191"/>
      <point x="214" y="280" type="curve" smooth="yes"/>
      <point x="214" y="368"/>
      <point x="251" y="386"/>
      <point x="331" y="386" type="curve" smooth="yes"/>
      <point x="383" y="386"/>
      <point x="438" y="386"/>
      <point x="476" y="312" type="curve"/>
      <point x="511" y="356" type="line"/>
      <point x="468" y="481"/>
      <point x="409" y="558"/>
      <point x="277" y="558" type="curve" smooth="yes"/>
      <point x="101" y="558"/>
      <point x="60" y="461"/>
    </contour>
    <contour>
      <point x="462" y="540" type="line"/>
      <point x="462" y="377" type="line"/>
      <point x="672" y="377" type="line"/>
      <point x="672" y="540" type="line"/>
    </contour>
  </outline>
</glyph>
<glyph name="r.alt" format="1">
  <advance width="563"/>
  <outline>
    <contour>
      <point x="373" y="71" type="line"/>
      <point x="223" y="112" type="line"/>
      <point x="223" y="540" type="line"/>
      <point x="40" y="540" type="line"/>
      <point x="40" y="419" type="line"/>
      <point x="100" y="419" type="line"/>
      <point x="100" y="96" type="line"/>
      <point x="40" y="96" type="line"/>
      <point x="40" y="0" type="line"/>
      <point x="373" y="0" type="line"/>
    </contour>
    <contour>
      <point x="223" y="406" type="line"/>
      <point x="223" y="250" type="line"/>
      <point x="223" y="323"/>
      <point x="265" y="383"/>
      <point x="338" y="383" type="curve"/>
      <point x="401" y="383"/>
      <point x="448" y="339"/>
      <point x="448" y="339" type="curve"/>
      <point x="525" y="485" type="line"/>
      <point x="525" y="485"/>
      <point x="454" y="558"/>
      <point x="354" y="558" type="curve" smooth="yes"/>
      <point x="253" y="558"/>
      <point x="256" y="406"/>
      <point x="256" y="406" type="curve"/>
    </contour>
  </outline>
</glyph>
